<?xml version="1.0" encoding="UTF-8"?>
<svg width="700px" height="120px" viewBox="0 0 700 120" version="1.1" xmlns="http://www.w3.org/2000/svg" xmlns:xlink="http://www.w3.org/1999/xlink">
    <title>Logo Black Copy</title>
    <g id="Logo-Black-Copy" stroke="none" stroke-width="1" fill="none" fill-rule="evenodd">
        <g id="Group" fill="#000000" fill-rule="nonzero">
            <path d="M126.40372,118 L126.40372,69.6730469 L126.359892,31.2151562 L147.170517,31.2151562 L146.732235,66.5586719 L148.186298,66.5586719 C148.823954,57.9580469 150.238485,50.893125 152.429892,45.3639062 C154.621298,39.8346875 157.709892,35.7161328 161.695673,33.0082422 C165.681454,30.3003516 170.66497,28.9464062 176.64622,28.9464062 C185.857001,28.9464062 192.751767,32.1093359 197.330517,38.4351953 C201.909267,44.7610547 204.198642,54.3254687 204.198642,67.1284375 L204.198642,118 L179.801845,118 L179.801845,70.3510937 C179.801845,63.5603125 178.863407,58.5209375 176.986532,55.2329687 C175.109657,51.945 172.083798,50.3010156 167.908954,50.3010156 C164.375204,50.3010156 161.326571,51.580625 158.763056,54.1398437 C156.19954,56.6990625 154.228564,60.6685156 152.850126,66.0482031 C151.471689,71.4278906 150.780751,78.4094531 150.777314,86.9928906 L150.777314,118 L126.40372,118 Z" id="Path"></path>
            <path d="M212.763989,118 L212.763989,69.6730469 L212.720161,31.2151562 L233.530786,31.2151562 L233.092504,66.5586719 L234.546567,66.5586719 C235.184223,57.9580469 236.598754,50.893125 238.790161,45.3639062 C240.981567,39.8346875 244.070161,35.7161328 248.055942,33.0082422 C252.041723,30.3003516 257.025239,28.9464062 263.006489,28.9464062 C272.21727,28.9464062 279.112036,32.1093359 283.690786,38.4351953 C288.269536,44.7610547 290.558911,54.3254687 290.558911,67.1284375 L290.558911,118 L266.162114,118 L266.162114,70.3510937 C266.162114,63.5603125 265.223676,58.5209375 263.346801,55.2329687 C261.469926,51.945 258.444067,50.3010156 254.269223,50.3010156 C250.735473,50.3010156 247.68684,51.580625 245.123325,54.1398437 C242.559809,56.6990625 240.588832,60.6685156 239.210395,66.0482031 C237.831957,71.4278906 237.14102,78.4094531 237.137582,86.9928906 L237.137582,118 L212.763989,118 Z" id="Path"></path>
            <path d="M338.020429,120.250703 C329.878711,120.250703 322.699921,118.567187 316.484062,115.200156 C310.268203,111.833125 305.435937,106.778281 301.987265,100.035625 C298.538593,93.2929687 296.814257,84.8599219 296.814257,74.7364844 C296.814257,64.2039844 298.610781,55.5685547 302.203828,48.8301953 C305.796875,42.0918359 310.718515,37.0932812 316.96875,33.8345312 C323.218984,30.5757812 330.33332,28.9464062 338.311757,28.9464062 C346.611601,28.9464062 353.849257,30.6178906 360.024726,33.9608594 C366.200195,37.3038281 370.995078,42.3432031 374.409375,49.0789844 C377.823671,55.8147656 379.53082,64.3320312 379.53082,74.6307812 C379.53082,85.171875 377.738593,93.8098828 374.15414,100.544805 C370.569687,107.279727 365.651484,112.247773 359.399531,115.448945 C353.147578,118.650117 346.021211,120.250703 338.020429,120.250703 Z M338.556679,102.113594 C342.088711,102.113594 345.056992,101.117578 347.461523,99.1255469 C349.866054,97.1335156 351.699531,94.1764062 352.961953,90.2542187 C354.224375,86.3320312 354.855586,81.5779687 354.855586,75.9920312 C354.855586,69.9145312 354.178398,64.8167187 352.824023,60.6985937 C351.469648,56.5804687 349.520156,53.4334375 346.975546,51.2575 C344.430937,49.0815625 341.336757,47.9935937 337.693007,47.9935937 C334.246914,47.9935937 331.316875,49.0080859 328.90289,51.0370703 C326.488906,53.0660547 324.650273,56.0695703 323.386992,60.0476172 C322.123711,64.0256641 321.49207,68.8807031 321.49207,74.6127344 C321.49207,83.4453906 322.987382,90.2370312 325.978007,94.9876562 C328.968632,99.7382812 333.161523,102.113594 338.556679,102.113594 Z" id="Shape"></path>
            <path d="M480.569572,120.250703 C476.245197,120.250703 472.192814,119.460937 468.412424,117.881406 C464.632033,116.301875 461.561486,113.798086 459.200783,110.370039 C456.84008,106.941992 455.659728,102.435 455.659728,96.8490625 C455.659728,91.6189062 456.657463,87.3508203 458.652932,84.0448047 C460.6484,80.7387891 463.342971,78.0674219 466.736643,76.0307031 C470.130314,73.9939844 473.881486,72.4264844 477.990158,71.3282031 C482.09883,70.2299219 486.220822,69.2803125 490.356135,68.479375 C495.751291,67.406875 499.805393,66.5217187 502.518439,65.8239062 C505.231486,65.1260937 507.077424,64.2912109 508.056252,63.3192578 C509.03508,62.3473047 509.524494,61.0165625 509.524494,59.3270312 C509.524494,55.7657812 508.323947,53.0445703 505.922853,51.1633984 C503.52176,49.2822266 500.366135,48.3416406 496.455978,48.3416406 C493.956916,48.3416406 491.511135,48.8465234 489.118635,49.8562891 C486.726135,50.8660547 484.771057,52.5757812 483.2534,54.9854687 C481.735744,57.3951562 480.994963,60.7235156 481.031057,64.9705469 L459.065432,62.9802344 C459.005275,56.4850781 460.060158,51.0448047 462.23008,46.6594141 C464.400002,42.2740234 467.348088,38.7922656 471.074338,36.2141406 C474.800588,33.6360156 478.932033,31.7801953 483.468674,30.6466797 C488.005314,29.5131641 492.610275,28.9464062 497.283557,28.9464062 C505.332463,28.9464062 512.026994,30.4546094 517.36715,33.4710156 C522.707307,36.4874219 526.704689,40.8977344 529.359299,46.7019531 C532.013908,52.5061719 533.341213,59.6467187 533.341213,68.1235937 L533.341213,84.2807031 C533.354963,88.0017969 533.369143,91.7516797 533.383752,95.5303516 C533.398361,99.3090234 533.415978,103.0675 533.436603,106.805781 C533.457228,110.544062 533.476994,114.275469 533.4959,118 L512.203166,118 C512.247853,113.928281 512.287385,109.824766 512.32176,105.689453 C512.356135,101.554141 512.394807,97.2203125 512.437775,92.6879687 L511.264728,92.6879687 C510.711291,97.8390625 509.073752,102.500312 506.352111,106.671719 C503.630471,110.843125 500.079533,114.149141 495.699299,116.589766 C491.319064,119.030391 486.275822,120.250703 480.569572,120.250703 Z M490.38965,102.062031 C492.446994,102.062031 494.574807,101.638359 496.773088,100.791016 C498.971369,99.9436719 501.023986,98.6189453 502.930939,96.8168359 C504.837893,95.0147266 506.393791,92.6561719 507.598635,89.7411719 C508.803478,86.8261719 509.441135,83.3465625 509.511603,79.3023437 L509.51676,74.1847656 L513.850588,73.3829687 C512.862307,74.8490625 511.328322,76.0289844 509.248635,76.9227344 C507.168947,77.8164844 504.846916,78.5284766 502.282541,79.0587109 C499.718166,79.5889453 497.137033,80.1307812 494.539143,80.6842187 C491.941252,81.2376562 489.543596,81.9672656 487.346174,82.8730469 C485.148752,83.7788281 483.367268,84.9871094 482.001721,86.4978906 C480.636174,88.0086719 479.9534,90.06 479.9534,92.651875 C479.9534,95.7164062 480.951135,98.0508984 482.946603,99.6553516 C484.942072,101.259805 487.423088,102.062031 490.38965,102.062031 Z" id="Shape"></path>
            <path d="M579.677385,120.250703 C572.27301,120.250703 565.897737,119.098281 560.551565,116.793437 C555.205393,114.488594 550.834612,111.278398 547.439221,107.162852 C544.043831,103.047305 541.543479,98.2889453 539.938167,92.8877734 C538.332854,87.4866016 537.530198,81.6896875 537.530198,75.4970312 C537.530198,69.22875 538.333284,63.3188281 539.939456,57.7672656 C541.545628,52.2157031 544.01762,47.2575391 547.355432,42.8927734 C550.693245,38.5280078 555.006448,35.115 560.295042,32.65375 C565.583635,30.1925 571.904339,28.961875 579.257151,28.961875 C587.931682,28.961875 594.969104,30.6282031 600.369417,33.9608594 C605.769729,37.2935156 609.596096,41.6260547 611.848518,46.9584766 C614.10094,52.2908984 614.825823,58.0800781 614.023167,64.3260156 L592.647932,66.4246094 C592.84387,62.3872656 592.398714,59.0137891 591.312464,56.3041797 C590.226214,53.5945703 588.620042,51.5535547 586.493948,50.1811328 C584.367854,48.8087109 581.806917,48.1225 578.811135,48.1225 C576.236448,48.1225 573.918714,48.6389844 571.857932,49.6719531 C569.797151,50.7049219 568.039729,52.2930469 566.585667,54.4363281 C565.131604,56.5796094 564.016565,59.2728906 563.24055,62.5161719 C562.464534,65.7594531 562.076526,69.6369531 562.076526,74.1486719 C562.076526,80.1574219 562.763596,85.2333203 564.137737,89.3763672 C565.511878,93.5194141 567.53012,96.6449609 570.192464,98.7530078 C572.854807,100.861055 576.117854,101.915078 579.981604,101.915078 C584.013792,101.915078 587.108831,100.890703 589.266721,98.8419531 C591.424612,96.7932031 592.879964,94.1905859 593.632776,91.0341016 C594.385589,87.8776172 594.578948,84.7086719 594.212854,81.5272656 L616.588401,82.958125 C617.148714,87.7860937 616.871565,92.4374609 615.756956,96.9122266 C614.642346,101.386992 612.581995,105.386523 609.575901,108.91082 C606.569807,112.435117 602.595198,115.206172 597.652073,117.223984 C592.708948,119.241797 586.717385,120.250703 579.677385,120.250703 Z" id="Path"></path>
            <path d="M662.175759,120.250703 C654.458571,120.250703 647.944509,119.115469 642.633571,116.845 C637.322634,114.574531 633.011149,111.423203 629.699118,107.391016 C626.387087,103.358828 623.983845,98.6876953 622.489392,93.3776172 C620.994938,88.0675391 620.247712,82.3728906 620.247712,76.2936719 C620.247712,70.0047656 621.017282,64.0175 622.556423,58.331875 C624.095563,52.64625 626.482048,47.5991406 629.715876,43.1905469 C632.949704,38.7819531 637.126267,35.3057812 642.245563,32.7620312 C647.36486,30.2182812 653.507243,28.9464062 660.672712,28.9464062 C667.686931,28.9464062 673.718024,30.1701562 678.765993,32.6176562 C683.813962,35.0651562 687.871501,38.5056641 690.93861,42.9391797 C694.00572,47.3726953 696.038142,52.5564453 697.035876,58.4904297 C698.03361,64.4244141 698.011696,70.9088281 696.970134,77.9436719 L635.574665,78.9878125 L635.574665,65.5660937 L678.438571,64.7410937 L674.896228,72.6172656 C675.477165,67.3596094 675.324196,62.9265234 674.437321,59.3180078 C673.550446,55.7094922 671.985095,52.9633594 669.741267,51.0796094 C667.497438,49.1958594 664.478024,48.2539844 660.683024,48.2539844 C656.638806,48.2539844 653.369313,49.3522656 650.874548,51.5488281 C648.379782,53.7453906 646.587985,56.8369922 645.499157,60.8236328 C644.410329,64.8102734 643.865915,69.5089062 643.865915,74.9195312 C643.865915,84.2575 645.403767,91.1019922 648.47947,95.4530078 C651.555173,99.8040234 656.181618,101.979531 662.358806,101.979531 C665.153493,101.979531 667.475095,101.569609 669.32361,100.749766 C671.172126,99.9299219 672.655837,98.7865234 673.774743,97.3195703 C674.893649,95.8526172 675.673103,94.136875 676.113103,92.1723437 C676.553103,90.2078125 676.717243,88.0877344 676.605524,85.8121094 L698.911462,87.3125781 C699.186462,91.1694531 698.774821,95.0319141 697.67654,98.8999609 C696.578259,102.768008 694.622751,106.306484 691.810017,109.515391 C688.997282,112.724297 685.16447,115.315742 680.311579,117.289727 C675.458688,119.263711 669.413415,120.250703 662.175759,120.250703 Z" id="Path"></path>
            <polygon id="Path" points="93 118 93 31 118 31 118 118"></polygon>
            <polygon id="Path-Copy-2" points="93 25.0049515 93 0 118 0 118 25.0049515"></polygon>
            <polygon id="Path-Copy-7" points="62 25.0049515 62 0 87 0 87 25.0049515"></polygon>
            <polygon id="Path-Copy-10" points="31 25.0049515 31 0 56 0 56 25.0049515"></polygon>
            <polygon id="Path-Copy-12" points="0 25.0049515 0 0 25 0 25 25.0049515"></polygon>
            <polygon id="Path-Copy-8" points="62 56.0049515 62 31 87 31 87 56.0049515"></polygon>
            <polygon id="Path-Copy-11" points="31 56.0049515 31 31 56 31 56 56.0049515"></polygon>
            <polygon id="Path-Copy-9" points="62 87.0049515 62 62 87 62 87 87.0049515"></polygon>
            <polygon id="Path" points="402.596851 118 376.395366 31.2228906 402.333882 31.2228906 418.117163 97.6895312 418.911226 97.6895312 435.233335 31.2228906 459.849272 31.2228906 433.627163 118"></polygon>
        </g>
    </g>
</svg>